# xmcd CD database file generated by Grip 3.0.6
# 
# Track frame offsets:
#       150
#       17433
#       36446
#       50399
#       61904
#       77309
#       94202
#       106989
#       120150
#       139753
#       158086
#       171155
#       179734
#       195067
#       199528
# 
# Disc length: 2819 seconds
# 
# Revision: 1
# Processed by: cddbd v1.4PL0 Copyright (c) Steve Scherf et al.
# Submitted via: Grip 3.0.6
# 
DISCID=b30b010f
DTITLE=Various Artist - The Blues Disc 1
DYEAR=2003
DGENRE=Blues
TTITLE0=Bo Didley - Mona (I Need You Baby)
TTITLE1=Howlin' Wolf - All My Life (live)
TTITLE2=Muddy Waters - Hoochie Coochie Man (live)
TTITLE3=John Lee Hooker - Boom Boom
TTITLE4=B.B. King - B.B.'s Boogie
TTITLE5=Lightnin' Slim - Crazy About You Babe
TTITLE6=Lightnin' Hopkins - Evil Hearted Woman
TTITLE7=Jimmy Reed - Caress Me Baby
TTITLE8=Leadbelly - John Hardy
TTITLE9=James Cotton - V8 Ford Blues
TTITLE10=Big Bill Broonzy - Night Time Is The Right Time
TTITLE11=Big Joe Williams - Baby Please Don't Go
TTITLE12=Lonnie Johnson - Let All Married Woman Alone
TTITLE13=Mississippi John Hurt - C-H-I-C-K-E-N Blues (live)
TTITLE14=Robert Johnson - I'm a Steady Rollin' Man
EXTD=
EXTT0=
EXTT1=
EXTT2=
EXTT3=
EXTT4=
EXTT5=
EXTT6=
EXTT7=
EXTT8=
EXTT9=
EXTT10=
EXTT11=
EXTT12=
EXTT13=
EXTT14=
PLAYORDER=
